<svg id="Layer_1" data-name="Layer 1" xmlns="http://www.w3.org/2000/svg" viewBox="0 0 228.53 28.07"><title>HHS_HR_Logo_2color</title><path d="M5.64,21a12.16,12.16,0,0,1,0-1.45L6.3,11.7H8.86l-.7,7.88c-.15,1.71.52,2.92,2.22,2.92a2.76,2.76,0,0,0,2.81-2.75l.73-8.05h2.56l-.71,8c-.29,3.06-2.32,5.36-5.6,5.36A4.36,4.36,0,0,1,5.64,21" transform="translate(-5.61 -4.11)" style="fill:#fff"/><path d="M17.52,18.32c.33-3.75,2.86-6.86,7.24-6.86a6,6,0,0,1,3.36,1l-.29,3.1A3.78,3.78,0,0,0,24.51,14c-2.72,0-4.21,1.89-4.43,4.28s1,4.22,3.63,4.22a4.89,4.89,0,0,0,3.65-1.61l-.28,3.18a7.35,7.35,0,0,1-3.57,1c-4.33,0-6.31-3.22-6-6.72" transform="translate(-5.61 -4.11)" style="fill:#fff"/><path d="M30.15,11.7H32.7l-.93,10.61h3.66l1.37,0c0,.13-.24,2.45-.24,2.45H29Z" transform="translate(-5.61 -4.11)" style="fill:#fff"/><path d="M43.45,16.57a3.35,3.35,0,0,0,.19-.55h0a2.94,2.94,0,0,0,.1.55c.14.59,1.14,3.89,1.14,3.89H41.68l1.76-3.9m.65-5.47h-.18l-7,13.63h2.71l1-2.07h4.92l.61,2.07h2.71Z" transform="translate(-5.61 -4.11)" style="fill:#fff"/><path d="M68.54,23.33H66.32v2.53h-.68V20.74h.68v2h2.22v-2h.68v5.11h-.68Z" transform="translate(-5.61 -4.11)" style="fill:#fff"/><path d="M70.64,24a1.66,1.66,0,1,1,3.3,0,1.67,1.67,0,1,1-3.3,0Zm.68,0c0,.68.21,1.46,1,1.46s1-.77,1-1.46-.25-1.37-1-1.37S71.32,23.34,71.32,24Z" transform="translate(-5.61 -4.11)" style="fill:#fff"/><path d="M77.37,25.46a1.46,1.46,0,0,1-1,.49c-.77,0-1.19-.48-1.19-1.39V22.21h.64v2.19c0,.68.26,1,.78,1s.82-.4.82-1.1V22.21H78v3.64h-.63Z" transform="translate(-5.61 -4.11)" style="fill:#fff"/><path d="M79,25.47l.32-.4a1.07,1.07,0,0,0,.71.38.49.49,0,0,0,.54-.49c0-.42-.36-.61-.65-.83s-.71-.54-.71-1a1,1,0,0,1,1.12-.95,1.19,1.19,0,0,1,.84.35l-.25.36a1.07,1.07,0,0,0-.62-.24.41.41,0,0,0-.46.4c0,.24.24.4.41.54l.26.21a1.47,1.47,0,0,1,.71,1.17,1.1,1.1,0,0,1-1.18,1A1.42,1.42,0,0,1,79,25.47Z" transform="translate(-5.61 -4.11)" style="fill:#fff"/><path d="M82.44,21a.41.41,0,0,1,.4-.4.4.4,0,0,1,.4.4.4.4,0,1,1-.79,0Zm.08,1.18h.63v3.67h-.63Z" transform="translate(-5.61 -4.11)" style="fill:#fff"/><path d="M86.79,23.65c0-.68-.26-1-.78-1a.92.92,0,0,0-.88,1v2.19h-.63V22.21h.63v.42a1.65,1.65,0,0,1,1.12-.5c.77,0,1.19.47,1.19,1.38v2.35h-.64Z" transform="translate(-5.61 -4.11)" style="fill:#fff"/><path d="M91.17,22.21h.63v3.52c0,1.39-.79,2-1.7,2a2.51,2.51,0,0,1-1.39-.37l.18-.46a2.1,2.1,0,0,0,1.19.33c.67,0,1.08-.46,1.08-1.41V25.3a1.26,1.26,0,0,1-1.1.66c-.93,0-1.51-.8-1.51-2a1.76,1.76,0,0,1,1.6-1.88,1.19,1.19,0,0,1,1,.56ZM89.25,24c0,.78.31,1.49.91,1.49s1-.73,1-1.54-.34-1.3-1-1.3S89.25,23.2,89.25,24Z" transform="translate(-5.61 -4.11)" style="fill:#fff"/><path d="M98.68,25.19a2,2,0,0,1-1.52.76,1.56,1.56,0,0,1-1.67-1.54,1.69,1.69,0,0,1,1-1.47,1.62,1.62,0,0,1-.59-1.13,1.19,1.19,0,0,1,1.26-1.15,1.49,1.49,0,0,1,1,.36l-.25.43a1.23,1.23,0,0,0-.66-.26.56.56,0,0,0-.62.57c0,.28.16.54.62,1l1.46,1.49a1.94,1.94,0,0,0-.2-1.52h-.66l.21-.49h2l-.22.49H99a2.37,2.37,0,0,1,0,1.9l1,1-.62.35Zm-2.46-.85a1,1,0,0,0,1,1.08,1.37,1.37,0,0,0,1.1-.6l-1.54-1.52A1.17,1.17,0,0,0,96.22,24.34Z" transform="translate(-5.61 -4.11)" style="fill:#fff"/><path d="M106.26,23.33H104v2.53h-.68V20.74H104v2h2.22v-2h.68v5.11h-.68Z" transform="translate(-5.61 -4.11)" style="fill:#fff"/><path d="M108.36,24a1.66,1.66,0,1,1,3.3,0,1.67,1.67,0,1,1-3.3,0Zm.68,0c0,.68.21,1.46,1,1.46s1-.77,1-1.46-.25-1.37-1-1.37S109,23.34,109,24Z" transform="translate(-5.61 -4.11)" style="fill:#fff"/><path d="M112.55,25.47l.32-.4a1.07,1.07,0,0,0,.71.38.49.49,0,0,0,.54-.49c0-.42-.36-.61-.65-.83s-.71-.54-.71-1a1,1,0,0,1,1.12-.95,1.19,1.19,0,0,1,.84.35l-.25.36a1.07,1.07,0,0,0-.62-.24.41.41,0,0,0-.46.4c0,.24.24.4.41.54l.26.21a1.47,1.47,0,0,1,.71,1.17,1.1,1.1,0,0,1-1.18,1A1.42,1.42,0,0,1,112.55,25.47Z" transform="translate(-5.61 -4.11)" style="fill:#fff"/><path d="M116.66,27.69H116V22.21h.63v.57a1.29,1.29,0,0,1,1.08-.65c1.31,0,1.52,1.29,1.52,1.82,0,1.1-.6,2-1.59,2a1.25,1.25,0,0,1-1-.54Zm0-3.58c0,.7.29,1.35,1,1.35s.9-.86.9-1.52-.3-1.32-.9-1.32S116.66,23.18,116.66,24.11Z" transform="translate(-5.61 -4.11)" style="fill:#fff"/><path d="M120.45,21a.41.41,0,0,1,.4-.4.4.4,0,0,1,.4.4.4.4,0,1,1-.79,0Zm.08,1.18h.63v3.67h-.63Z" transform="translate(-5.61 -4.11)" style="fill:#fff"/><path d="M122.64,24.76V22.6h-.46v-.41h.46v-.86l.63-.24v1.1h.87v.41h-.87v2c0,.51.1.79.44.79a.82.82,0,0,0,.46-.13l.16.39a1.23,1.23,0,0,1-.7.25C123,25.94,122.64,25.5,122.64,24.76Z" transform="translate(-5.61 -4.11)" style="fill:#fff"/><path d="M126.93,25.27c-.26.28-.6.68-1,.68a1,1,0,0,1-1-1.13c0-.64.51-1,1.19-1.26l.79-.27a.7.7,0,0,0-.64-.69,1.21,1.21,0,0,0-.87.4l-.26-.36a1.48,1.48,0,0,1,1.16-.5,1.12,1.12,0,0,1,1.24,1.24V25a2.38,2.38,0,0,0,.15.9H127A1.39,1.39,0,0,1,126.93,25.27Zm-1.32-.46a.54.54,0,0,0,.46.6c.4,0,.93-.54.88-1.66l-.54.18C125.87,24.09,125.61,24.36,125.61,24.8Z" transform="translate(-5.61 -4.11)" style="fill:#fff"/><path d="M129,20.49h.63v5.37H129Z" transform="translate(-5.61 -4.11)" style="fill:#fff"/><path d="M130.85,21a.41.41,0,0,1,.4-.4.4.4,0,0,1,.4.4.4.4,0,1,1-.79,0Zm.08,1.18h.63v3.67h-.63Z" transform="translate(-5.61 -4.11)" style="fill:#fff"/><path d="M133,24.76V22.6h-.46v-.41H133v-.86l.63-.24v1.1h.87v.41h-.87v2c0,.51.1.79.44.79a.82.82,0,0,0,.46-.13l.16.39a1.23,1.23,0,0,1-.7.25C133.36,25.94,133,25.5,133,24.76Z" transform="translate(-5.61 -4.11)" style="fill:#fff"/><path d="M137.77,22.21h.63l-1.74,4.3c-.31.77-.73,1.19-1.31,1.19H135v-.51h.25c.4,0,.68-.1,1.16-1.53l-1.35-3.45h.71c.35.93.65,1.77,1,2.85C137.12,24,137.42,23.14,137.77,22.21Z" transform="translate(-5.61 -4.11)" style="fill:#fff"/><path d="M141.39,25.39l.3-.45a1.61,1.61,0,0,0,1,.46.94.94,0,0,0,1-1c0-.77-.82-.94-1.18-1.15a2.52,2.52,0,0,1-.68-.51,1.38,1.38,0,0,1-.26-.84,1.28,1.28,0,0,1,1.35-1.21,1.46,1.46,0,0,1,1.17.52l-.32.39a1.44,1.44,0,0,0-.8-.37.65.65,0,0,0-.71.68c0,.94,2.16.81,2.16,2.49a1.55,1.55,0,0,1-1.72,1.58A1.88,1.88,0,0,1,141.39,25.39Z" transform="translate(-5.61 -4.11)" style="fill:#fff"/><path d="M147.14,25.44a1.56,1.56,0,0,0,.91-.32l.19.39a2,2,0,0,1-1.12.43c-1,0-1.74-.71-1.74-2A1.65,1.65,0,0,1,147,22.13c1,0,1.36,1,1.3,2H146A1.26,1.26,0,0,0,147.14,25.44Zm-1.06-1.82h1.6c0-.57-.23-1-.72-1S146.11,23.15,146.08,23.63Z" transform="translate(-5.61 -4.11)" style="fill:#fff"/><path d="M150.67,22.78c-.28,0-.54.31-.54,1.11v2h-.63V22.21h.63v.41l.2-.23a.78.78,0,0,1,.52-.26.83.83,0,0,1,.57.37l-.29.44A1,1,0,0,0,150.67,22.78Z" transform="translate(-5.61 -4.11)" style="fill:#fff"/><path d="M154.41,22.21H155l-1.48,3.65h-.4l-1.42-3.65h.69c.35.93.65,1.76,1,2.83C153.74,24,154.06,23.13,154.41,22.21Z" transform="translate(-5.61 -4.11)" style="fill:#fff"/><path d="M155.74,21a.41.41,0,0,1,.4-.4.4.4,0,0,1,.4.4.4.4,0,1,1-.79,0Zm.08,1.18h.63v3.67h-.63Z" transform="translate(-5.61 -4.11)" style="fill:#fff"/><path d="M157.56,24a1.78,1.78,0,0,1,1.82-1.9,1.39,1.39,0,0,1,.91.31l-.21.4a1.49,1.49,0,0,0-.69-.2A1.19,1.19,0,0,0,158.25,24c0,.75.35,1.44,1.13,1.44a1.37,1.37,0,0,0,.82-.27l.18.4a1.79,1.79,0,0,1-1,.39A1.77,1.77,0,0,1,157.56,24Z" transform="translate(-5.61 -4.11)" style="fill:#fff"/><path d="M162.9,25.44a1.56,1.56,0,0,0,.91-.32l.19.39a2,2,0,0,1-1.12.43c-1,0-1.74-.71-1.74-2a1.65,1.65,0,0,1,1.59-1.83c1,0,1.36,1,1.3,2H161.8A1.26,1.26,0,0,0,162.9,25.44Zm-1.06-1.82h1.6c0-.57-.23-1-.72-1S161.87,23.15,161.85,23.63Z" transform="translate(-5.61 -4.11)" style="fill:#fff"/><path d="M164.92,25.47l.32-.4a1.07,1.07,0,0,0,.71.38.49.49,0,0,0,.54-.49c0-.42-.36-.61-.65-.83s-.71-.54-.71-1a1,1,0,0,1,1.12-.95,1.19,1.19,0,0,1,.84.35l-.25.36a1.07,1.07,0,0,0-.62-.24.41.41,0,0,0-.46.4c0,.24.24.4.41.54l.26.21a1.47,1.47,0,0,1,.71,1.17,1.1,1.1,0,0,1-1.18,1A1.42,1.42,0,0,1,164.92,25.47Z" transform="translate(-5.61 -4.11)" style="fill:#fff"/><path d="M69.24,13.47H66.69v3.05H65.6V10.13h1.09V12.6h2.55V10.13h1.09v6.39H69.24Z" transform="translate(-5.61 -4.11)" style="fill:#fff"/><path d="M75,14h-.62v2.54h-1.1v-6.4h1.8a1.65,1.65,0,0,1,1.82,1.71A2.11,2.11,0,0,1,76,13.66l1.63,2.89h-1.3Zm-.63-3v2.1h.32a1,1,0,0,0,1.08-1.19c0-.68-.39-.91-.85-.91Z" transform="translate(-5.61 -4.11)" style="fill:#fff"/><path d="M87.89,15.77a2.59,2.59,0,0,1-1.91.86,2,2,0,0,1-2.21-2,2.11,2.11,0,0,1,1.16-1.8,1.92,1.92,0,0,1-.67-1.34A1.59,1.59,0,0,1,86,10a2.15,2.15,0,0,1,1.36.52l-.42.72A1.64,1.64,0,0,0,86,10.9c-.46,0-.67.27-.67.58s.17.57.75,1.13l1.68,1.67a2.26,2.26,0,0,0-.26-1.51h-.94l.37-.82h2.79l-.38.82h-.86a2.93,2.93,0,0,1,0,2.16l1.33,1.21-1,.53Zm-3-1.19a1.17,1.17,0,0,0,1.16,1.2,1.61,1.61,0,0,0,1.22-.6l-1.79-1.7A1.3,1.3,0,0,0,84.91,14.59Z" transform="translate(-5.61 -4.11)" style="fill:#fff"/><path d="M96.9,14.13v2.39h-1.1V10.13h1.6c1.29,0,2.13.63,2.13,1.9a2.16,2.16,0,0,1-2.28,2.1Zm0-3.13v2.31l.36,0A1.11,1.11,0,0,0,98.4,12a.94.94,0,0,0-1.09-1Z" transform="translate(-5.61 -4.11)" style="fill:#fff"/><path d="M104.26,14.34h-1.74l-.75,2.19h-1.08l2.46-6.39H104l2.25,6.39H105Zm-1.41-.88H104c-.18-.56-.37-1.12-.55-1.79C103.24,12.33,103.05,12.89,102.85,13.45Z" transform="translate(-5.61 -4.11)" style="fill:#fff"/><path d="M110.85,16.53h-1.08V13.77l-1.84-3.64h1.26l1.24,2.64,1.35-2.64h1.1l-2,3.64Z" transform="translate(-5.61 -4.11)" style="fill:#fff"/><path d="M116.93,14h-.62v2.54h-1.1v-6.4H117a1.65,1.65,0,0,1,1.82,1.71,2.11,2.11,0,0,1-.93,1.82l1.63,2.89h-1.3Zm-.63-3v2.1h.32a1,1,0,0,0,1.08-1.19c0-.68-.39-.91-.85-.91Z" transform="translate(-5.61 -4.11)" style="fill:#fff"/><path d="M121.44,13.21a3,3,0,1,1,6.08,0c0,1.89-1.15,3.42-3,3.42A3.12,3.12,0,0,1,121.44,13.21Zm1.17,0c0,1.21.52,2.54,1.88,2.54s1.88-1.33,1.88-2.54-.57-2.32-1.88-2.32S122.6,12.08,122.6,13.21Z" transform="translate(-5.61 -4.11)" style="fill:#fff"/><path d="M130.3,10.13h1.09v5.51h2.42v.88h-3.5Z" transform="translate(-5.61 -4.11)" style="fill:#fff"/><path d="M136.15,10.13h1.09v5.51h2.42v.88h-3.5Z" transform="translate(-5.61 -4.11)" style="fill:#fff"/><path d="M149,10.9a2.15,2.15,0,0,0-2.14,2.39A2.24,2.24,0,0,0,149,15.75a2.55,2.55,0,0,0,1.51-.52L151,16a3.54,3.54,0,0,1-2,.66,3.13,3.13,0,0,1-3.27-3.33A3.27,3.27,0,0,1,149.09,10a3,3,0,0,1,2,.72l-.48.76A2.52,2.52,0,0,0,149,10.9Z" transform="translate(-5.61 -4.11)" style="fill:#fff"/><path d="M153.46,10.13h3.15V11h-2.06v1.71h2v.88h-2v2.05H157v.88h-3.5Z" transform="translate(-5.61 -4.11)" style="fill:#fff"/><path d="M160.35,11.92v4.61h-.95V10.13h.81c1.15,1.44,2.9,3.63,3.61,4.6v-4.6h.95v6.39h-.85C162.79,15.09,161,12.86,160.35,11.92Z" transform="translate(-5.61 -4.11)" style="fill:#fff"/><path d="M170,16.53H169V11H167.1v-.87h4.81V11H170Z" transform="translate(-5.61 -4.11)" style="fill:#fff"/><path d="M174,10.13h3.15V11H175v1.71h2v.88h-2v2.05h2.42v.88H174Z" transform="translate(-5.61 -4.11)" style="fill:#fff"/><path d="M181.62,14H181v2.54h-1.1v-6.4h1.8a1.65,1.65,0,0,1,1.82,1.71,2.11,2.11,0,0,1-.93,1.82l1.63,2.89h-1.3ZM181,11v2.1h.32a1,1,0,0,0,1.08-1.19c0-.68-.39-.91-.85-.91Z" transform="translate(-5.61 -4.11)" style="fill:#fff"/><path d="M188,13.59h7.72v.53H188Z" transform="translate(-5.61 -4.11)" style="fill:#fff"/><path d="M200.72,11.92v4.61h-.95V10.13h.81c1.15,1.44,2.9,3.63,3.61,4.6v-4.6h.95v6.39h-.85C203.15,15.09,201.4,12.86,200.72,11.92Z" transform="translate(-5.61 -4.11)" style="fill:#fff"/><path d="M207.82,13.21a3,3,0,1,1,6.08,0c0,1.89-1.15,3.42-3,3.42A3.12,3.12,0,0,1,207.82,13.21Zm1.17,0c0,1.21.52,2.54,1.88,2.54s1.88-1.33,1.88-2.54-.57-2.32-1.88-2.32S209,12.08,209,13.21Z" transform="translate(-5.61 -4.11)" style="fill:#fff"/><path d="M218.39,14h-.62v2.54h-1.1v-6.4h1.8a1.65,1.65,0,0,1,1.82,1.71,2.11,2.11,0,0,1-.93,1.82L221,16.55h-1.3Zm-.63-3v2.1h.32a1,1,0,0,0,1.08-1.19c0-.68-.39-.91-.85-.91Z" transform="translate(-5.61 -4.11)" style="fill:#fff"/><path d="M225.49,16.53h-1.08V11h-1.87v-.87h4.81V11h-1.87Z" transform="translate(-5.61 -4.11)" style="fill:#fff"/><path d="M233,13.47H230.5v3.05h-1.1V10.13h1.09V12.6H233V10.13h1.09v6.39H233Z" transform="translate(-5.61 -4.11)" style="fill:#fff"/><rect x="50.95" width="0.47" height="28.07" style="fill:#fff"/></svg>