<svg id="Layer_1" data-name="Layer 1" xmlns="http://www.w3.org/2000/svg" viewBox="0 0 228.78 21.12"><title>logo</title><path d="M68.55,17.23H66v3.05H64.9V13.89H66v2.47h2.55V13.89h1.09v6.39H68.55Z" transform="translate(-4.66 -6.4)" style="fill:#fff"/><path d="M74.34,17.75h-.62v2.54h-1.1v-6.4h1.8a1.65,1.65,0,0,1,1.82,1.71,2.11,2.11,0,0,1-.93,1.82L77,20.31h-1.3Zm-.63-3v2.1H74a1,1,0,0,0,1.08-1.19c0-.68-.39-.91-.85-.91Z" transform="translate(-4.66 -6.4)" style="fill:#fff"/><path d="M87.2,19.53a2.59,2.59,0,0,1-1.91.86,2,2,0,0,1-2.21-2,2.11,2.11,0,0,1,1.16-1.8,1.92,1.92,0,0,1-.67-1.34,1.59,1.59,0,0,1,1.69-1.5,2.15,2.15,0,0,1,1.36.52L86.2,15a1.64,1.64,0,0,0-.87-.36c-.46,0-.67.27-.67.58s.17.57.75,1.13L87.09,18a2.26,2.26,0,0,0-.26-1.51h-.94l.37-.82h2.79l-.38.82h-.86a2.93,2.93,0,0,1,0,2.16l1.33,1.21-1,.53Zm-3-1.19a1.17,1.17,0,0,0,1.16,1.2,1.61,1.61,0,0,0,1.22-.6l-1.79-1.7A1.3,1.3,0,0,0,84.22,18.35Z" transform="translate(-4.66 -6.4)" style="fill:#fff"/><path d="M96.21,17.9v2.39h-1.1V13.89h1.6c1.29,0,2.13.63,2.13,1.9a2.16,2.16,0,0,1-2.28,2.1Zm0-3.13v2.31l.36,0a1.11,1.11,0,0,0,1.14-1.26.94.94,0,0,0-1.09-1Z" transform="translate(-4.66 -6.4)" style="fill:#fff"/><path d="M103.56,18.1h-1.74l-.75,2.19H100l2.46-6.39h.82l2.25,6.39H104.3Zm-1.41-.88h1.14c-.18-.56-.37-1.12-.55-1.78C102.55,16.09,102.36,16.66,102.15,17.22Z" transform="translate(-4.66 -6.4)" style="fill:#fff"/><path d="M110.16,20.29h-1.08V17.53l-1.84-3.64h1.26l1.24,2.64,1.35-2.64h1.1l-2,3.64Z" transform="translate(-4.66 -6.4)" style="fill:#fff"/><path d="M116.23,17.75h-.62v2.54h-1.1v-6.4h1.8a1.65,1.65,0,0,1,1.82,1.71,2.11,2.11,0,0,1-.93,1.82l1.63,2.89h-1.3Zm-.63-3v2.1h.32A1,1,0,0,0,117,15.68c0-.68-.39-.91-.85-.91Z" transform="translate(-4.66 -6.4)" style="fill:#fff"/><path d="M120.74,17a3,3,0,1,1,6.08,0c0,1.89-1.15,3.42-3,3.42A3.12,3.12,0,0,1,120.74,17Zm1.17,0c0,1.21.52,2.54,1.88,2.54s1.88-1.33,1.88-2.54-.57-2.32-1.88-2.32S121.91,15.84,121.91,17Z" transform="translate(-4.66 -6.4)" style="fill:#fff"/><path d="M129.6,13.89h1.09v5.51h2.42v.88h-3.5Z" transform="translate(-4.66 -6.4)" style="fill:#fff"/><path d="M135.46,13.89h1.09v5.51H139v.88h-3.5Z" transform="translate(-4.66 -6.4)" style="fill:#fff"/><path d="M148.34,14.66a2.15,2.15,0,0,0-2.14,2.39,2.24,2.24,0,0,0,2.14,2.47,2.55,2.55,0,0,0,1.51-.52l.46.74a3.54,3.54,0,0,1-2,.66A3.13,3.13,0,0,1,145,17.07a3.27,3.27,0,0,1,3.37-3.28,3,3,0,0,1,2,.72l-.48.76A2.52,2.52,0,0,0,148.34,14.66Z" transform="translate(-4.66 -6.4)" style="fill:#fff"/><path d="M152.76,13.89h3.15v.87h-2.06v1.71h2v.87h-2v2.05h2.42v.88h-3.5Z" transform="translate(-4.66 -6.4)" style="fill:#fff"/><path d="M159.66,15.68v4.61h-.95V13.89h.81c1.15,1.44,2.9,3.62,3.61,4.6v-4.6h.95v6.39h-.85C162.09,18.85,160.35,16.63,159.66,15.68Z" transform="translate(-4.66 -6.4)" style="fill:#fff"/><path d="M169.35,20.29h-1.08V14.77h-1.87v-.87h4.81v.87h-1.87Z" transform="translate(-4.66 -6.4)" style="fill:#fff"/><path d="M173.27,13.89h3.15v.87h-2.06v1.71h2v.87h-2v2.05h2.42v.88h-3.5Z" transform="translate(-4.66 -6.4)" style="fill:#fff"/><path d="M180.92,17.75h-.62v2.54h-1.1v-6.4H181a1.65,1.65,0,0,1,1.82,1.71,2.11,2.11,0,0,1-.93,1.82l1.63,2.89h-1.3Zm-.63-3v2.1h.32a1,1,0,0,0,1.08-1.19c0-.68-.39-.91-.85-.91Z" transform="translate(-4.66 -6.4)" style="fill:#fff"/><path d="M187.28,17.35H195v.53h-7.72Z" transform="translate(-4.66 -6.4)" style="fill:#fff"/><path d="M200,15.68v4.61h-.95V13.89h.81c1.15,1.44,2.9,3.62,3.61,4.6v-4.6h.95v6.39h-.85C202.46,18.85,200.71,16.63,200,15.68Z" transform="translate(-4.66 -6.4)" style="fill:#fff"/><path d="M207.12,17a3,3,0,1,1,6.08,0c0,1.89-1.15,3.42-3,3.42A3.12,3.12,0,0,1,207.12,17Zm1.17,0c0,1.21.52,2.54,1.88,2.54S212,18.19,212,17s-.57-2.32-1.88-2.32S208.29,15.84,208.29,17Z" transform="translate(-4.66 -6.4)" style="fill:#fff"/><path d="M217.7,17.75h-.62v2.54H216v-6.4h1.8a1.65,1.65,0,0,1,1.82,1.71,2.11,2.11,0,0,1-.93,1.82l1.63,2.89H219Zm-.63-3v2.1h.32a1,1,0,0,0,1.08-1.19c0-.68-.39-.91-.85-.91Z" transform="translate(-4.66 -6.4)" style="fill:#fff"/><path d="M224.8,20.29h-1.08V14.77h-1.87v-.87h4.81v.87H224.8Z" transform="translate(-4.66 -6.4)" style="fill:#fff"/><path d="M232.36,17.23h-2.55v3.05h-1.1V13.89h1.09v2.47h2.55V13.89h1.09v6.39h-1.09Z" transform="translate(-4.66 -6.4)" style="fill:#fff"/><g id="_Group_" data-name="&lt;Group&gt;"><path id="_Path_" data-name="&lt;Path&gt;" d="M4.7,19.68a12.16,12.16,0,0,1,0-1.45l.69-7.81H7.91l-.7,7.88c-.15,1.71.52,2.92,2.22,2.92a2.76,2.76,0,0,0,2.81-2.75L13,10.42h2.56l-.71,8c-.29,3.06-2.32,5.36-5.6,5.36A4.36,4.36,0,0,1,4.7,19.68" transform="translate(-4.66 -6.4)" style="fill:#fff"/><path id="_Path_2" data-name="&lt;Path&gt;" d="M16.57,17c.33-3.75,2.86-6.86,7.24-6.86a6,6,0,0,1,3.36,1l-.29,3.1a3.78,3.78,0,0,0-3.31-1.54c-2.72,0-4.21,1.89-4.43,4.28s1,4.22,3.63,4.22a4.89,4.89,0,0,0,3.65-1.61l-.28,3.18a7.35,7.35,0,0,1-3.57,1c-4.33,0-6.31-3.22-6-6.72" transform="translate(-4.66 -6.4)" style="fill:#fff"/><path id="_Path_3" data-name="&lt;Path&gt;" d="M29.21,10.42h2.55L30.83,21h3.66l1.37,0c0,.13-.24,2.45-.24,2.45H28Z" transform="translate(-4.66 -6.4)" style="fill:#fff"/><path id="_Compound_Path_" data-name="&lt;Compound Path&gt;" d="M42.5,15.29a3.35,3.35,0,0,0,.19-.55h0a2.94,2.94,0,0,0,.1.55C43,15.88,44,19.19,44,19.19H40.74l1.76-3.9m.65-5.47H43L36,23.46H38.7l1-2.07H44.6l.61,2.07h2.71Z" transform="translate(-4.66 -6.4)" style="fill:#fff"/></g><g id="_Group_2" data-name="&lt;Group&gt;"><rect id="_Path_4" data-name="&lt;Path&gt;" x="51.08" width="0.48" height="21.12" style="fill:#fff"/></g></svg>