<svg id="Layer_1" data-name="Layer 1" xmlns="http://www.w3.org/2000/svg" viewBox="0 0 199.14 23.83"><title>logo_v3</title><g id="_Group_" data-name="&lt;Group&gt;"><g id="_Group_2" data-name="&lt;Group&gt;"><rect x="60.53" width="0.48" height="23.83" style="fill:#fff"/></g></g><path d="M3.59,17.88a14.78,14.78,0,0,1,0-1.76l.84-9.5H7.5l-.85,9.58c-.18,2.07.63,3.56,2.7,3.56a3.36,3.36,0,0,0,3.42-3.35l.88-9.79h3.11l-.86,9.67c-.35,3.73-2.82,6.51-6.81,6.51a5.3,5.3,0,0,1-5.5-4.92" transform="translate(-3.54 -2.46)" style="fill:#fff"/><path d="M18,14.67c.41-4.56,3.48-8.34,8.8-8.34A7.3,7.3,0,0,1,30.9,7.5l-.36,3.77a4.59,4.59,0,0,0-4-1.87c-3.31,0-5.12,2.3-5.38,5.21s1.21,5.13,4.41,5.13a6,6,0,0,0,4.44-2l-.34,3.87a8.93,8.93,0,0,1-4.34,1.2c-5.26,0-7.67-3.91-7.29-8.18" transform="translate(-3.54 -2.46)" style="fill:#fff"/><path d="M33.38,6.63h3.1l-1.13,12.9H39.8c.31,0,1.37,0,1.66,0,0,.16-.29,3-.29,3H32Z" transform="translate(-3.54 -2.46)" style="fill:#fff"/><path d="M49.54,12.54a4.07,4.07,0,0,0,.23-.67h.05a3.57,3.57,0,0,0,.12.67c.17.72,1.38,4.74,1.38,4.74H47.4l2.14-4.74m.79-6.64h-.21l-8.5,16.57h3.3L46.12,20h6l.75,2.52h3.29Z" transform="translate(-3.54 -2.46)" style="fill:#fff"/><path d="M76.92,9H74.37v3.05h-1.1V5.66h1.09V8.12h2.55V5.66H78v6.39H76.92Z" transform="translate(-3.54 -2.46)" style="fill:#fff"/><path d="M82.71,9.51h-.62v2.54H81V5.65h1.8a1.65,1.65,0,0,1,1.82,1.71,2.11,2.11,0,0,1-.93,1.82l1.63,2.89H84Zm-.63-3v2.1h.32a1,1,0,0,0,1.08-1.19c0-.68-.39-.91-.85-.91Z" transform="translate(-3.54 -2.46)" style="fill:#fff"/><path d="M95.57,11.3a2.59,2.59,0,0,1-1.91.86,2,2,0,0,1-2.21-2,2.11,2.11,0,0,1,1.16-1.8A1.92,1.92,0,0,1,91.94,7a1.59,1.59,0,0,1,1.69-1.5A2.15,2.15,0,0,1,95,6.06l-.42.72a1.64,1.64,0,0,0-.87-.36c-.46,0-.67.27-.67.58s.17.57.75,1.13L95.46,9.8a2.26,2.26,0,0,0-.26-1.51h-.94l.37-.82h2.79L97,8.29h-.86a2.93,2.93,0,0,1,0,2.16l1.33,1.21-1,.53Zm-3-1.19a1.17,1.17,0,0,0,1.16,1.2,1.61,1.61,0,0,0,1.22-.6L93.18,9A1.3,1.3,0,0,0,92.59,10.11Z" transform="translate(-3.54 -2.46)" style="fill:#fff"/><path d="M104.58,9.66v2.39h-1.1V5.66h1.6c1.29,0,2.13.63,2.13,1.9a2.16,2.16,0,0,1-2.28,2.1Zm0-3.13V8.84l.36,0a1.11,1.11,0,0,0,1.14-1.26.94.94,0,0,0-1.09-1Z" transform="translate(-3.54 -2.46)" style="fill:#fff"/><path d="M111.93,9.86h-1.74l-.75,2.19h-1.08l2.46-6.39h.82l2.25,6.39h-1.22ZM110.53,9h1.14c-.18-.56-.37-1.12-.55-1.79C110.92,7.86,110.73,8.42,110.53,9Z" transform="translate(-3.54 -2.46)" style="fill:#fff"/><path d="M118.53,12.05h-1.08V9.29l-1.84-3.64h1.26l1.24,2.64,1.35-2.64h1.1l-2,3.64Z" transform="translate(-3.54 -2.46)" style="fill:#fff"/><path d="M124.6,9.51H124v2.54h-1.1V5.65h1.8a1.65,1.65,0,0,1,1.82,1.71,2.11,2.11,0,0,1-.93,1.82l1.63,2.89h-1.3Zm-.63-3v2.1h.32a1,1,0,0,0,1.08-1.19c0-.68-.39-.91-.85-.91Z" transform="translate(-3.54 -2.46)" style="fill:#fff"/><path d="M129.11,8.74a3,3,0,1,1,6.08,0c0,1.89-1.15,3.42-3,3.42A3.12,3.12,0,0,1,129.11,8.74Zm1.17,0c0,1.21.52,2.54,1.88,2.54S134,10,134,8.74s-.57-2.32-1.88-2.32S130.28,7.61,130.28,8.74Z" transform="translate(-3.54 -2.46)" style="fill:#fff"/><path d="M138,5.66h1.09v5.51h2.42v.88H138Z" transform="translate(-3.54 -2.46)" style="fill:#fff"/><path d="M143.83,5.66h1.09v5.51h2.42v.88h-3.5Z" transform="translate(-3.54 -2.46)" style="fill:#fff"/><path d="M156.71,6.42a2.15,2.15,0,0,0-2.14,2.39,2.24,2.24,0,0,0,2.14,2.47,2.55,2.55,0,0,0,1.51-.52l.46.74a3.54,3.54,0,0,1-2,.66,3.13,3.13,0,0,1-3.27-3.33,3.27,3.27,0,0,1,3.37-3.29,3,3,0,0,1,2,.72l-.48.76A2.52,2.52,0,0,0,156.71,6.42Z" transform="translate(-3.54 -2.46)" style="fill:#fff"/><path d="M161.14,5.66h3.15v.87h-2.06V8.24h2v.88h-2v2.05h2.42v.88h-3.5Z" transform="translate(-3.54 -2.46)" style="fill:#fff"/><path d="M168,7.44v4.61h-.95V5.66h.81c1.15,1.44,2.9,3.62,3.61,4.6V5.66h.95v6.39h-.85C170.47,10.61,168.72,8.39,168,7.44Z" transform="translate(-3.54 -2.46)" style="fill:#fff"/><path d="M177.73,12.05h-1.08V6.53h-1.87V5.66h4.81v.87h-1.87Z" transform="translate(-3.54 -2.46)" style="fill:#fff"/><path d="M181.64,5.66h3.15v.87h-2.06V8.24h2v.88h-2v2.05h2.42v.88h-3.5Z" transform="translate(-3.54 -2.46)" style="fill:#fff"/><path d="M189.29,9.51h-.62v2.54h-1.1V5.65h1.8a1.65,1.65,0,0,1,1.82,1.71,2.11,2.11,0,0,1-.93,1.82l1.63,2.89h-1.3Zm-.63-3v2.1H189a1,1,0,0,0,1.08-1.19c0-.68-.39-.91-.85-.91Z" transform="translate(-3.54 -2.46)" style="fill:#fff"/><path d="M195,9.11h7.72v.53H195Z" transform="translate(-3.54 -2.46)" style="fill:#fff"/><path d="M74.22,18.48v4.61h-.95V16.7h.81c1.15,1.44,2.9,3.63,3.61,4.6V16.7h.95v6.39h-.85C76.66,21.66,74.91,19.43,74.22,18.48Z" transform="translate(-3.54 -2.46)" style="fill:#fff"/><path d="M81.33,19.78a3,3,0,1,1,6.08,0c0,1.89-1.15,3.42-3,3.42A3.12,3.12,0,0,1,81.33,19.78Zm1.17,0c0,1.21.52,2.54,1.88,2.54s1.88-1.33,1.88-2.54-.57-2.32-1.88-2.32S82.5,18.65,82.5,19.78Z" transform="translate(-3.54 -2.46)" style="fill:#fff"/><path d="M91.9,20.55h-.62v2.54h-1.1v-6.4H92a1.65,1.65,0,0,1,1.82,1.71,2.11,2.11,0,0,1-.93,1.82l1.63,2.89h-1.3Zm-.63-3v2.1h.32a1,1,0,0,0,1.08-1.19c0-.68-.39-.91-.85-.91Z" transform="translate(-3.54 -2.46)" style="fill:#fff"/><path d="M99,23.09H97.93V17.57H96.06V16.7h4.81v.87H99Z" transform="translate(-3.54 -2.46)" style="fill:#fff"/><path d="M106.56,20H104v3.05h-1.1V16.7H104v2.47h2.55V16.7h1.09v6.39h-1.09Z" transform="translate(-3.54 -2.46)" style="fill:#fff"/></svg>